<?xml version="1.0" standalone="no"?>
<!DOCTYPE svg PUBLIC "-//W3C//DTD SVG 20010904//EN"
 "http://www.w3.org/TR/2001/REC-SVG-20010904/DTD/svg10.dtd">
<svg version="1.0" xmlns="http://www.w3.org/2000/svg"
 width="1040.000000pt" height="1040.000000pt" viewBox="0 0 1040.000000 1040.000000"
 preserveAspectRatio="xMidYMid meet">

<g transform="translate(0.000000,1040.000000) scale(0.100000,-0.100000)"
fill="#000000" stroke="none">
<path d="M0 5200 l0 -5200 5200 0 5200 0 0 5200 0 5200 -5200 0 -5200 0 0
-5200z m5241 3792 c192 -279 271 -406 276 -442 7 -51 23 -52 115 -3 53 27 92
60 164 137 52 55 109 119 127 143 18 23 35 43 38 43 4 0 17 -37 29 -82 43
-161 102 -342 126 -389 47 -94 104 -101 174 -22 22 25 40 50 40 55 0 6 -12 19
-26 31 -59 46 -65 125 -12 177 76 76 198 30 198 -75 0 -45 -1 -47 -207 -349
-50 -72 -81 -131 -95 -175 -39 -126 -65 -158 -107 -132 -12 8 -8 25 23 96 21
48 34 91 29 95 -10 10 -145 51 -283 85 -336 84 -733 97 -1113 34 -201 -33
-473 -110 -464 -132 3 -7 20 -47 38 -90 28 -66 31 -80 19 -87 -32 -20 -47 -10
-73 48 -14 31 -30 76 -37 100 -7 26 -68 128 -155 257 -156 231 -164 249 -126
311 54 89 197 55 217 -53 8 -44 -16 -99 -51 -115 -30 -13 -30 -16 -8 -48 52
-79 104 -105 149 -75 37 24 83 132 144 340 29 99 56 184 60 188 4 4 45 -39 93
-96 108 -131 177 -194 251 -230 72 -36 88 -33 98 18 10 44 292 475 312 475 6
-1 23 -17 37 -38z m24 -787 c34 -33 32 -70 -5 -107 -26 -25 -36 -29 -63 -24
-40 8 -67 39 -67 79 0 70 85 103 135 52z m-528 -57 c29 -27 29 -65 1 -95 -43
-46 -118 -16 -118 47 0 62 71 92 117 48z m1031 2 c45 -42 15 -120 -46 -120
-66 0 -96 79 -46 119 34 27 64 27 92 1z m-173 -144 c116 -18 415 -87 415 -96
0 -3 -16 -14 -35 -24 -35 -19 -36 -19 -153 7 -437 100 -808 102 -1215 5 l-128
-30 -46 20 -46 20 58 17 c146 42 356 83 500 98 96 10 554 -2 650 -17z m-1586
-157 c74 -28 183 -34 257 -15 85 22 117 20 177 -11 45 -24 66 -27 162 -30
l110 -4 -54 23 c-85 36 -78 49 20 42 283 -20 437 -136 501 -377 10 -39 18 -84
19 -101 0 -18 9 6 19 54 22 105 43 159 88 229 74 112 220 181 412 194 113 8
126 -12 30 -47 l-45 -17 101 4 c82 3 111 9 158 30 68 31 101 33 188 11 43 -11
83 -15 128 -11 89 8 126 20 201 66 35 21 65 36 67 31 2 -4 -11 -42 -28 -84
-16 -42 -30 -78 -30 -80 0 -2 17 2 38 9 50 17 202 28 202 14 0 -5 -23 -46 -51
-89 -54 -84 -103 -134 -153 -155 l-31 -13 30 -7 c59 -13 87 -28 112 -62 35
-45 74 -64 158 -77 l70 -11 -75 -35 c-68 -31 -86 -35 -190 -40 l-115 -5 36
-21 c20 -12 79 -41 130 -63 52 -23 133 -64 180 -91 94 -54 157 -80 196 -80 46
0 17 -25 -69 -59 l-85 -34 45 -31 c55 -37 76 -70 98 -156 28 -110 2 -328 -51
-429 l-13 -26 -13 49 c-10 40 -14 46 -20 30 -7 -19 -8 -19 -9 1 -2 11 -2 24
-1 28 1 5 -3 6 -9 2 -6 -3 -8 -11 -5 -16 4 -5 -6 -9 -20 -9 -17 0 -24 4 -19
12 4 7 3 8 -5 4 -7 -5 -9 -16 -5 -28 3 -11 2 -23 -3 -27 -5 -3 -21 -46 -36
-96 -23 -82 -129 -402 -148 -450 -13 -35 -10 93 6 195 25 160 14 353 -18 333
-6 -3 -7 -1 -4 5 8 12 -2 42 -14 42 -5 0 -9 -26 -9 -59 0 -33 -11 -97 -26
-147 -45 -156 -65 -256 -80 -394 -22 -209 -55 -309 -145 -442 -47 -68 -136
-166 -193 -211 -37 -28 -39 -29 -24 -7 92 133 167 292 199 421 18 69 21 102
16 189 -3 58 -13 130 -23 160 l-17 55 -13 -75 c-12 -66 -84 -340 -101 -380 -8
-18 -21 64 -22 140 l-2 55 -42 -80 c-72 -136 -99 -171 -275 -359 -107 -114
-161 -200 -163 -261 l-1 -30 -8 30 c-20 80 1 252 45 360 12 31 -5 11 -88 -106
-132 -185 -175 -290 -184 -449 l-7 -105 -22 70 c-30 94 -39 184 -25 253 12 60
151 345 238 489 73 119 98 205 97 328 0 55 -6 112 -12 128 -21 50 5 28 36 -31
56 -105 76 -254 52 -382 -6 -29 -9 -55 -7 -57 2 -2 39 64 81 147 118 229 135
326 96 522 -12 55 -19 102 -17 105 9 8 145 -149 170 -196 15 -26 33 -74 42
-106 8 -32 18 -61 21 -64 4 -3 4 35 1 84 -4 64 -14 116 -37 180 -17 50 -34
120 -37 157 -5 63 -8 68 -35 77 -19 7 -27 15 -22 22 4 8 3 9 -4 5 -7 -4 -12
-13 -12 -21 0 -8 -5 -17 -11 -20 -11 -7 -10 8 11 114 14 72 12 143 -4 221 -8
36 -12 67 -10 69 1 2 16 4 31 5 15 0 29 5 31 9 1 4 -9 27 -23 51 -14 25 -35
70 -46 102 -23 64 -16 79 33 68 18 -4 29 0 36 11 7 14 13 10 35 -26 35 -60 77
-98 172 -155 44 -26 90 -54 103 -62 51 -33 15 2 -85 84 -139 113 -176 147
-228 214 -39 50 -110 178 -133 240 -9 24 -8 25 27 24 28 -1 37 3 41 18 4 15
15 6 55 -48 68 -90 127 -142 278 -241 l127 -85 78 7 c133 11 135 12 51 49
-131 57 -318 186 -311 215 1 7 -1 10 -6 7 -10 -6 -56 41 -108 109 -38 49 -53
79 -24 45 15 -16 32 -24 55 -25 18 0 37 -4 42 -9 4 -5 3 -6 -4 -2 -6 3 -14 2
-17 -3 -4 -5 2 -8 11 -6 10 1 29 -4 43 -12 23 -13 23 -12 -2 9 -16 13 -28 29
-28 36 0 15 -31 12 -42 -3 -4 -5 -6 0 -5 12 1 17 4 19 14 11 10 -8 13 -6 13 6
0 20 4 20 70 -5 30 -11 64 -19 77 -16 12 2 20 1 18 -3 -3 -5 5 -7 18 -7 12 1
33 -3 47 -7 24 -8 24 -8 5 8 -11 8 -16 16 -11 16 14 0 -34 39 -84 68 -25 14
-55 34 -68 43 l-23 18 98 51 c81 41 91 49 58 43 -62 -10 -179 -7 -245 7 -33 7
-58 15 -56 17 3 3 35 7 72 9 72 5 133 31 158 69 15 22 14 22 -22 9 -22 -8 -84
-13 -154 -14 -115 0 -117 0 -199 -40 -60 -29 -96 -40 -128 -40 -43 0 -142 20
-185 36 -45 17 0 -18 88 -70 89 -53 171 -126 148 -134 -6 -2 -24 3 -39 12 -35
17 -153 49 -160 42 -3 -2 14 -14 36 -26 93 -47 164 -157 196 -304 14 -61 15
-84 6 -98 -16 -27 -14 -46 19 -146 34 -102 39 -182 15 -239 -8 -19 -48 -67
-87 -104 -59 -57 -78 -69 -105 -69 -31 0 -33 -2 -33 -34 0 -18 -6 -38 -13 -44
-12 -10 -213 -54 -297 -66 -19 -2 19 -3 85 0 66 2 141 6 168 10 39 6 47 4 47
-10 0 -39 -33 -52 -161 -66 -68 -7 -133 -16 -144 -21 -26 -10 131 -10 203 0
29 4 54 5 57 3 8 -9 -26 -77 -53 -105 -80 -84 -183 -83 -374 5 -57 26 -69 36
-82 69 -9 22 -16 57 -16 78 0 34 6 44 39 70 23 19 45 48 55 76 12 31 24 46 39
49 106 20 124 34 143 111 l7 30 -23 -20 c-22 -20 -45 -22 -275 -24 -153 -1
-254 6 -268 18 -22 17 -22 3 -1 -50 18 -44 43 -59 99 -59 35 0 75 -36 75 -67
0 -8 21 -35 46 -60 46 -44 46 -45 41 -95 -10 -85 -28 -100 -192 -163 -84 -32
-135 -38 -186 -25 -58 15 -104 52 -129 100 -31 62 -28 68 33 59 71 -10 228
-10 202 0 -11 5 -72 14 -135 21 -121 13 -160 28 -160 60 0 18 5 20 38 15 107
-16 211 -22 247 -16 37 6 32 7 -51 19 -92 13 -231 46 -242 56 -3 4 -6 22 -6
41 -1 32 -3 35 -31 35 -24 0 -47 15 -104 67 -119 108 -134 171 -81 336 31 98
38 153 19 159 -8 3 -8 20 0 63 29 147 91 263 166 312 86 56 84 54 35 47 -25
-3 -71 -17 -104 -31 -32 -13 -60 -22 -63 -19 -11 11 74 87 146 130 44 26 91
56 103 66 22 18 20 18 -47 -1 -38 -11 -99 -22 -135 -25 -61 -5 -70 -3 -148 35
-82 40 -86 41 -190 41 -63 1 -122 6 -144 14 -43 15 -47 10 -18 -27 24 -30 66
-46 137 -50 138 -8 2 -40 -150 -36 l-108 4 90 -43 c50 -24 91 -48 91 -52 0 -5
-21 -21 -46 -36 -34 -20 -42 -29 -32 -36 9 -7 7 -8 -8 -3 -14 3 -29 -3 -47
-19 -14 -13 -27 -22 -29 -21 -2 2 -19 -10 -38 -27 -19 -16 -29 -27 -22 -23 8
4 30 8 50 10 20 1 38 7 40 14 2 6 8 8 13 5 6 -3 18 1 27 8 30 26 42 30 36 14
-3 -9 -11 -13 -18 -9 -8 4 -8 2 1 -7 11 -12 39 -6 116 25 15 6 17 3 14 -21 -3
-16 -9 -28 -14 -27 -5 1 -10 -4 -10 -11 0 -8 5 -13 11 -12 23 3 35 17 29 33
-4 10 -2 14 4 10 6 -4 14 -1 17 5 3 7 3 2 -1 -12 -5 -22 -4 -23 11 -11 9 7 16
10 16 6 0 -5 10 0 22 11 25 22 18 7 -19 -44 -13 -18 -29 -29 -35 -26 -7 5 -8
2 -3 -6 11 -17 -126 -145 -226 -211 -42 -28 -112 -65 -154 -84 -86 -37 -84
-40 37 -50 l77 -7 113 75 c158 103 209 146 279 235 74 93 73 92 67 65 -4 -16
-2 -20 10 -16 11 5 13 3 7 -7 -6 -10 -4 -12 7 -7 9 3 21 0 28 -6 9 -9 11 -9 7
-1 -4 7 0 14 7 17 13 5 13 1 1 -32 -35 -99 -113 -225 -187 -302 -25 -26 -87
-80 -139 -121 -131 -104 -139 -120 -29 -53 109 65 151 102 187 163 18 30 28
40 34 31 4 -7 26 -13 49 -13 41 -1 41 -2 36 -31 -3 -16 -24 -67 -46 -112 -22
-44 -40 -83 -40 -86 0 -2 14 -4 31 -5 17 0 33 -3 36 -5 2 -3 -1 -33 -8 -66
-11 -56 -8 -179 6 -294 2 -23 0 -35 -5 -32 -6 4 -10 0 -10 -7 -1 -7 -7 -2 -14
11 -12 21 -14 22 -20 5 -6 -15 -9 -16 -16 -5 -5 9 -10 -6 -15 -45 -3 -32 -18
-99 -32 -149 -38 -132 -53 -204 -53 -257 0 -58 16 -63 25 -9 11 67 69 172 141
258 38 45 70 80 72 78 2 -2 -4 -41 -14 -87 -23 -109 -23 -254 0 -338 17 -61
130 -301 163 -345 15 -19 15 -19 9 5 -17 63 -18 236 -2 304 15 63 72 183 82
173 2 -2 -1 -38 -8 -80 -21 -136 16 -282 108 -423 21 -33 82 -145 134 -248
l95 -187 0 -102 c0 -81 -5 -117 -25 -177 l-24 -75 -7 101 c-7 111 -40 227 -87
304 -30 51 -186 269 -189 266 -1 -1 9 -38 23 -81 28 -90 47 -304 25 -291 -6 4
-11 14 -11 23 0 40 -71 139 -196 273 -128 137 -215 255 -260 357 l-18 38 -3
-30 c-2 -16 -6 -58 -9 -92 -3 -35 -9 -63 -13 -63 -8 0 -76 253 -100 375 l-17
90 -20 -70 c-29 -106 -27 -296 4 -390 32 -97 101 -239 157 -326 l46 -72 -38
31 c-93 74 -199 204 -256 317 -40 80 -57 150 -77 321 -20 166 -38 254 -84 408
-14 48 -26 113 -26 143 0 70 -18 67 -42 -8 -21 -68 -22 -146 -3 -273 8 -55 15
-131 14 -170 l0 -71 -24 80 c-13 44 -46 141 -73 215 -27 74 -55 160 -62 190
-7 30 -15 59 -18 65 -3 5 -7 18 -7 28 -1 10 -8 23 -15 30 -10 10 -12 9 -7 -4
3 -11 -1 -15 -16 -14 -11 1 -23 7 -25 14 -7 21 -31 -8 -38 -45 -3 -19 -10 -37
-15 -39 -11 -8 -47 113 -66 224 -19 113 -8 214 32 297 24 50 84 103 116 104 7
1 -13 12 -47 24 -81 32 -124 54 -124 66 0 6 9 10 20 10 35 0 113 31 175 71 34
21 120 65 192 97 71 32 140 66 154 75 23 16 20 17 -74 17 -102 0 -182 19 -248
59 l-31 19 58 7 c82 11 95 17 164 80 49 45 66 55 95 55 46 0 44 12 -5 34 -21
9 -58 38 -81 64 -42 48 -109 155 -109 174 0 13 150 1 202 -17 l38 -13 -7 27
c-3 14 -17 53 -30 85 -13 33 -23 63 -23 68 0 4 23 -8 50 -28 28 -20 72 -44 99
-55z m2382 -426 c13 -17 13 -17 -6 -3 -11 8 -22 16 -24 17 -2 2 0 3 6 3 6 0
17 -8 24 -17z m-2171 3 c0 -3 -4 -8 -10 -11 -5 -3 -10 -1 -10 4 0 6 5 11 10
11 6 0 10 -2 10 -4z m-710 -1050 c0 -3 -4 -8 -10 -11 -5 -3 -10 -1 -10 4 0 6
5 11 10 11 6 0 10 -2 10 -4z m1799 -206 c36 -16 113 -49 171 -73 74 -31 109
-51 118 -68 15 -28 10 -104 -11 -165 -14 -38 -14 -38 -22 -14 -18 61 -27 54
-71 -57 -24 -59 -45 -101 -48 -93 -2 8 -12 38 -20 65 -9 28 -28 68 -43 90
l-27 40 -8 -44 c-4 -24 -31 -87 -60 -139 -52 -94 -53 -95 -60 -64 -25 104 -24
102 -32 40 -4 -32 -11 -58 -15 -58 -7 0 -78 116 -98 164 -7 16 -14 44 -16 62
-1 19 -4 34 -7 34 -12 0 -55 -80 -76 -140 l-22 -65 -11 30 c-42 110 -76 183
-83 179 -5 -3 -14 -18 -20 -32 l-10 -27 -10 25 c-5 14 -12 55 -15 93 -7 83 0
93 100 135 40 17 115 49 167 71 52 22 110 41 129 41 19 0 64 -13 100 -30z
m-3039 -400 c13 -8 13 -17 -2 -72 -9 -35 -20 -71 -24 -82 -7 -18 -3 -18 88
-12 79 6 96 5 107 -8 24 -29 2 -36 -108 -36 -95 0 -109 -2 -114 -17 -2 -10 -8
-26 -12 -35 -6 -16 -1 -18 36 -18 24 0 62 5 84 10 40 10 95 -2 95 -21 0 -5
-18 -32 -40 -61 -22 -29 -40 -58 -40 -65 0 -19 44 -48 120 -79 38 -16 70 -32
70 -35 0 -8 -63 -19 -105 -19 -22 0 -42 12 -76 46 l-46 46 -49 -25 c-53 -27
-146 -57 -176 -57 -38 0 -16 16 47 34 36 10 85 31 110 47 53 34 52 40 -15 104
-28 26 -44 36 -47 27 -19 -50 -150 -172 -186 -172 -5 0 23 34 61 75 39 42 85
104 102 138 30 59 30 62 11 65 -11 2 -35 -1 -54 -6 -28 -8 -38 -6 -50 6 -14
14 -14 19 3 53 11 20 22 56 26 78 7 42 23 52 43 28 8 -10 6 -28 -8 -68 -11
-30 -18 -55 -17 -56 2 -2 24 0 49 3 l46 7 17 74 c9 40 14 83 11 93 -6 22 16
27 43 10z m2535 -73 c1 -101 22 -146 128 -274 118 -143 136 -169 162 -226 47
-108 56 -256 21 -368 l-14 -44 -1 40 c-3 75 -29 193 -57 257 -16 34 -76 127
-135 204 -91 122 -108 151 -122 207 -19 75 -21 151 -6 217 20 94 24 92 24 -13z
m821 22 c16 -64 18 -149 3 -217 -12 -57 -44 -110 -149 -249 -104 -136 -148
-244 -163 -396 -3 -27 -7 -51 -10 -53 -13 -13 -29 142 -25 227 7 129 38 194
169 357 129 159 154 210 154 314 0 42 1 75 3 73 2 -2 10 -27 18 -56z m2483 45
c15 -11 21 -23 18 -36 -5 -17 -2 -19 31 -14 133 19 137 19 170 -9 42 -35 40
-51 -5 -59 -21 -3 -49 -9 -62 -13 -24 -6 -24 -6 -8 18 9 13 17 27 17 31 0 11
-44 10 -202 -4 -120 -10 -138 -14 -138 -29 0 -10 -11 -30 -24 -45 -22 -27 -24
-27 -33 -8 -13 25 33 132 50 115 12 -12 62 -14 119 -5 l37 6 -14 29 c-8 15
-15 30 -15 34 0 11 36 4 59 -11z m-4780 -11 c19 -16 20 -22 11 -53 -5 -19 -10
-46 -10 -59 0 -19 4 -22 22 -18 30 8 68 -2 68 -18 0 -9 -17 -16 -44 -20 l-45
-7 -3 -174 c-2 -98 -7 -177 -13 -183 -6 -6 -29 8 -65 40 -48 44 -51 49 -27 43
64 -15 62 -18 65 96 l3 105 -53 -59 c-45 -51 -112 -95 -124 -83 -3 2 26 35 63
73 37 38 76 83 86 101 l18 32 -50 -6 c-52 -6 -101 2 -101 16 0 5 26 12 58 16
112 13 105 7 99 96 -6 86 1 95 42 62z m4070 0 c19 -16 20 -22 11 -53 -5 -19
-10 -46 -10 -59 0 -19 4 -22 22 -18 30 8 68 -2 68 -18 0 -9 -17 -16 -44 -20
l-45 -7 -3 -174 c-2 -98 -7 -177 -13 -183 -6 -6 -29 8 -65 40 -48 44 -51 49
-27 43 64 -15 62 -18 65 96 l3 105 -50 -56 c-45 -51 -101 -89 -130 -89 -6 0
22 33 62 73 39 39 80 86 90 104 l18 32 -50 -6 c-52 -6 -101 2 -101 16 0 5 26
12 58 16 112 13 106 7 99 96 -7 86 0 96 42 62z m-5005 -28 c27 -25 34 -59 15
-70 -17 -11 -79 59 -79 90 0 14 40 2 64 -20z m699 -16 l24 -11 -5 -146 c-2
-81 -8 -151 -13 -156 -21 -23 -31 15 -30 113 1 55 -1 116 -5 136 -7 38 -18 42
-83 29 l-31 -6 0 -117 c0 -117 -6 -161 -20 -161 -18 0 -26 56 -17 119 9 69 6
144 -7 173 -6 14 0 16 41 17 26 0 62 5 78 10 40 13 41 13 68 0z m4076 0 c16
-11 18 -24 13 -158 -4 -146 -11 -176 -34 -153 -8 8 -11 45 -9 111 1 54 -1 115
-4 135 -8 39 -19 43 -84 30 l-31 -6 0 -108 c0 -112 -7 -170 -20 -170 -18 0
-26 56 -17 119 9 69 6 144 -7 173 -6 14 0 16 41 17 26 0 62 5 78 10 41 13 52
13 74 0z m1031 -84 c1 -13 -175 -38 -208 -30 -40 10 -13 23 78 38 86 13 129
11 130 -8z m-5187 -14 c22 -9 24 -14 20 -63 -10 -136 -58 -234 -134 -274 -38
-19 -37 -11 6 33 61 63 80 115 80 221 0 50 1 92 2 92 1 0 13 -4 26 -9z m4070
0 c22 -9 24 -14 20 -63 -10 -136 -58 -234 -134 -274 -38 -19 -36 -7 6 36 61
60 80 112 80 218 0 50 1 92 2 92 1 0 13 -4 26 -9z m1111 -46 c16 -12 17 -18 6
-44 -6 -17 -10 -34 -9 -38 2 -4 -34 -13 -81 -19 -93 -13 -110 -6 -110 42 0 13
-6 26 -12 30 -7 5 29 15 82 25 52 9 97 17 100 17 3 1 13 -5 24 -13z m79 -135
c22 -18 25 -25 17 -46 -6 -14 -10 -46 -10 -72 0 -48 -26 -113 -47 -120 -7 -2
-17 7 -22 21 -9 23 -12 24 -93 20 -45 -3 -96 -9 -112 -14 -37 -12 -43 -3 -52
71 -3 30 -12 68 -20 84 -16 34 -10 49 20 43 11 -3 75 3 141 13 157 23 148 23
178 0z m-5167 -95 c16 -25 13 -55 -5 -55 -9 0 -71 90 -71 104 0 14 60 -25 76
-49z m4069 1 c15 -22 12 -56 -5 -56 -8 0 -70 92 -70 104 0 13 60 -25 75 -48z
m-840 -830 c192 -52 340 -189 406 -376 l27 -75 43 0 c24 0 50 -4 57 -8 9 -6
12 22 13 130 1 76 3 179 5 228 l3 90 154 3 154 2 68 -112 c68 -111 166 -262
184 -284 5 -6 16 -24 24 -41 9 -16 23 -30 31 -30 8 0 13 4 10 9 -3 5 -10 5
-16 2 -6 -4 -8 -2 -5 4 4 6 37 10 77 9 63 -1 70 -4 72 -22 3 -40 15 203 17
333 l1 132 150 0 150 0 0 -164 c0 -89 3 -190 6 -223 l6 -59 57 4 c31 2 57 5
59 7 1 1 15 39 31 85 52 146 143 251 276 315 183 88 437 86 616 -6 64 -32 160
-134 193 -203 27 -59 48 -141 38 -151 -3 -3 -74 -5 -158 -5 l-152 0 -11 32
c-33 95 -111 142 -231 141 -151 -1 -250 -91 -278 -250 l-9 -53 428 0 429 0 0
-342 0 -343 -92 3 c-53 2 -96 8 -99 14 -4 6 -10 31 -14 55 -3 23 -9 43 -12 43
-3 0 -24 -16 -46 -36 -60 -55 -144 -87 -277 -109 -40 -6 -215 23 -283 48 -167
61 -264 167 -328 358 l-34 101 -47 -4 c-25 -2 -44 0 -41 5 2 4 0 7 -5 7 -16 0
-22 -84 -22 -286 l0 -194 -157 0 -158 0 -134 213 c-130 204 -181 278 -181 260
0 -5 -9 -9 -20 -9 -11 0 -20 3 -20 6 0 3 -22 3 -49 2 l-48 -4 -7 -105 c-3 -59
-6 -165 -6 -237 l0 -131 -144 3 -144 3 -7 238 -7 237 -49 -6 c-32 -4 -49 -3
-49 4 0 6 -15 -33 -34 -87 -71 -207 -202 -335 -394 -385 -130 -35 -181 -38
-304 -23 -154 20 -274 75 -365 168 -66 67 -96 118 -138 235 -19 51 -35 89 -35
83 -1 -5 -5 -1 -10 10 -5 11 -9 72 -9 135 0 63 4 124 9 135 6 14 9 15 10 5 1
-8 13 21 28 65 31 91 76 176 124 231 80 92 217 163 353 184 83 12 248 5 320
-14z m-4421 -2 c152 -39 282 -141 343 -269 32 -67 48 -147 31 -152 -5 -2 -75
-3 -156 -3 l-149 0 -12 39 c-13 44 -56 93 -105 118 -47 25 -163 29 -224 9 -87
-29 -156 -115 -182 -228 -15 -65 -12 -216 5 -283 37 -140 124 -214 262 -223
64 -4 79 -1 129 23 65 32 106 88 125 169 l11 51 159 -3 c183 -3 173 4 144
-107 -38 -143 -142 -272 -275 -337 -100 -49 -154 -61 -285 -61 -292 0 -496
137 -581 388 -22 65 -28 103 -32 206 -8 234 43 387 172 514 121 119 240 163
440 164 77 1 139 -4 180 -15z m3556 -129 l0 -125 -161 0 -162 0 4 -222 c2
-123 3 -339 2 -480 l-3 -258 -160 0 -160 0 0 480 0 480 -160 0 -160 0 0 125 0
125 480 0 480 0 0 -125z m-2120 -10 l0 -125 -305 0 -305 0 0 -103 0 -104 182
-6 c99 -4 227 -7 283 -7 l102 0 -1 -122 -1 -123 -282 -3 -283 -2 0 -125 0
-125 305 0 305 0 0 -125 0 -125 -470 0 -470 0 0 610 0 610 470 0 470 0 0 -125z
m1050 0 l0 -125 -305 0 -305 0 0 -103 0 -104 98 -6 c53 -4 181 -7 285 -7 l187
0 0 -125 0 -125 -285 0 -285 0 0 -125 0 -125 310 0 311 0 -3 -122 -3 -123
-467 -3 -468 -2 -2 252 c-1 139 -3 414 -3 610 l0 358 468 0 467 0 0 -125z
m3060 -1317 c68 -35 90 -86 90 -208 0 -122 -22 -173 -90 -207 l-44 -23 -2211
0 -2211 0 -44 23 c-68 34 -90 85 -90 207 0 122 22 173 90 208 l44 22 2211 0
2211 0 44 -22z"/>
<path d="M5167 8843 c-104 -143 -196 -297 -203 -340 -9 -62 -26 -76 -86 -69
-108 13 -223 81 -330 194 -32 33 -58 57 -58 52 0 -5 10 -35 21 -67 55 -146
250 -246 446 -227 l73 6 0 57 c0 45 9 75 43 151 47 104 124 240 135 240 8 0 6
4 93 -171 78 -158 93 -200 86 -244 l-5 -32 64 -7 c102 -10 230 16 313 66 76
45 113 91 151 188 l21 55 -78 -78 c-119 -118 -206 -167 -320 -183 -61 -8 -78
6 -87 70 -5 31 -28 76 -74 148 -73 112 -161 238 -167 238 -2 0 -19 -21 -38
-47z"/>
<path d="M4468 8650 c-3 -8 -24 -73 -47 -145 -41 -128 -84 -209 -124 -235 -11
-6 -40 -15 -63 -19 l-44 -6 24 -29 23 -30 45 27 c86 50 164 169 188 284 11 52
10 180 -2 153z"/>
<path d="M5937 8618 c-9 -66 9 -163 45 -234 34 -69 108 -150 163 -180 l36 -19
19 25 c27 35 25 40 -14 40 -40 0 -92 33 -123 78 -27 41 -69 150 -98 255 l-22
81 -6 -46z"/>
<path d="M5010 8334 c-19 -2 -79 -9 -133 -15 -163 -19 -102 -21 94 -3 173 15
306 15 519 0 63 -5 64 -5 15 4 -54 10 -437 21 -495 14z"/>
<path d="M5583 8303 c9 -2 23 -2 30 0 6 3 -1 5 -18 5 -16 0 -22 -2 -12 -5z"/>
<path d="M4670 8288 c-121 -25 -301 -71 -297 -75 3 -2 33 3 68 12 35 10 125
30 199 45 74 16 122 28 105 28 -16 0 -50 -4 -75 -10z"/>
<path d="M5653 8293 c9 -2 23 -2 30 0 6 3 -1 5 -18 5 -16 0 -22 -2 -12 -5z"/>
<path d="M5708 8283 c6 -2 18 -2 25 0 6 3 1 5 -13 5 -14 0 -19 -2 -12 -5z"/>
<path d="M5768 8273 c6 -2 18 -2 25 0 6 3 1 5 -13 5 -14 0 -19 -2 -12 -5z"/>
<path d="M5818 8263 c7 -3 16 -2 19 1 4 3 -2 6 -13 5 -11 0 -14 -3 -6 -6z"/>
<path d="M5858 8253 c6 -2 18 -2 25 0 6 3 1 5 -13 5 -14 0 -19 -2 -12 -5z"/>
<path d="M5908 8243 c7 -3 16 -2 19 1 4 3 -2 6 -13 5 -11 0 -14 -3 -6 -6z"/>
<path d="M5948 8233 c7 -3 16 -2 19 1 4 3 -2 6 -13 5 -11 0 -14 -3 -6 -6z"/>
<path d="M6526 7395 c10 -8 23 -15 28 -15 6 0 1 7 -10 15 -10 8 -23 15 -28 15
-6 0 -1 -7 10 -15z"/>
<path d="M4175 7360 c-3 -6 1 -7 9 -4 18 7 21 14 7 14 -6 0 -13 -4 -16 -10z"/>
<path d="M6225 7360 c4 -6 11 -8 16 -5 14 9 11 15 -7 15 -8 0 -12 -5 -9 -10z"/>
<path d="M4794 7343 c6 -11 -82 -18 -210 -16 -6 0 -10 -9 -9 -21 2 -25 47 -35
70 -16 30 25 216 -14 199 -41 -4 -7 -3 -9 3 -6 13 8 73 -57 73 -78 0 -19 -61
-20 -147 -1 -35 7 -63 9 -63 6 0 -15 26 -27 68 -33 23 -3 54 -13 68 -22 22
-14 24 -20 18 -63 -4 -30 -1 -59 8 -80 l13 -34 28 71 c15 39 27 87 27 106 0
29 8 43 41 74 l42 38 -52 -5 -51 -5 -67 69 c-37 38 -63 63 -59 57z"/>
<path d="M5549 7278 c-45 -48 -60 -58 -87 -58 -18 0 -42 5 -53 10 -11 7 -19 7
-19 1 0 -11 58 -61 71 -61 5 0 9 -15 9 -33 0 -38 25 -128 48 -172 l15 -30 10
25 c5 14 9 53 8 88 l-2 63 35 14 c20 8 48 15 64 15 16 0 37 8 46 19 16 18 15
18 -41 5 -80 -19 -153 -18 -153 1 0 22 70 96 105 111 44 18 161 29 169 15 11
-16 56 -14 56 3 0 25 -21 31 -126 36 l-100 5 -55 -57z"/>
<path d="M4530 7309 c0 -5 5 -7 10 -4 6 3 10 8 10 11 0 2 -4 4 -10 4 -5 0 -10
-5 -10 -11z"/>
<path d="M4718 7123 c7 -3 16 -2 19 1 4 3 -2 6 -13 5 -11 0 -14 -3 -6 -6z"/>
<path d="M6550 6957 c0 -3 12 -12 26 -22 15 -9 23 -12 20 -6 -7 11 -46 35 -46
28z"/>
<path d="M5518 6890 l-17 -30 31 0 c19 0 42 -9 57 -22 14 -13 10 -5 -10 17
-20 22 -38 46 -40 52 -2 7 -12 -1 -21 -17z"/>
<path d="M4835 6862 c-32 -37 -34 -42 -11 -24 16 12 41 22 57 22 27 0 28 2 17
25 -6 14 -14 25 -17 24 -3 0 -24 -22 -46 -47z"/>
<path d="M4575 6838 c-7 -29 10 -100 32 -134 8 -12 25 -30 39 -39 23 -15 25
-15 35 12 6 15 20 38 31 51 l21 22 -35 0 c-30 0 -38 5 -48 29 -6 16 -24 41
-40 56 l-29 28 -6 -25z"/>
<path d="M5808 6837 c-14 -13 -34 -39 -43 -57 -15 -29 -20 -32 -55 -28 l-38 3
34 -37 c19 -21 34 -45 34 -53 0 -23 15 -18 49 17 37 38 54 87 49 142 l-3 38
-27 -25z"/>
<path d="M4615 6608 c10 -33 20 -40 51 -40 15 0 56 -16 90 -35 40 -21 81 -36
115 -39 l54 -5 -67 24 c-77 29 -123 55 -157 91 -17 18 -35 26 -58 26 -31 0
-34 -2 -28 -22z"/>
<path d="M5714 6609 c-30 -34 -93 -70 -164 -96 -58 -20 -61 -23 -30 -23 51 0
99 16 153 50 28 18 61 30 81 30 25 0 35 6 44 25 16 35 17 35 -26 35 -27 0 -45
-7 -58 -21z"/>
<path d="M6291 6444 c0 -11 3 -14 6 -6 3 7 2 16 -1 19 -3 4 -6 -2 -5 -13z"/>
<path d="M6300 6403 c1 -77 36 -244 76 -360 25 -74 48 -162 51 -194 5 -56 14
-70 19 -32 11 69 14 448 5 502 -10 65 -20 86 -28 64 -3 -7 -9 -13 -14 -13 -6
0 -8 3 -6 8 3 4 -18 5 -45 3 -43 -3 -50 -1 -45 13 3 8 2 18 -3 21 -6 4 -10 -2
-10 -12z"/>
<path d="M4089 6386 c10 -12 9 -14 -6 -11 -10 2 -37 6 -60 8 -42 5 -43 4 -53
-31 -11 -40 -12 -417 -1 -542 l6 -75 8 80 c5 49 25 132 53 215 64 195 89 370
53 370 -8 0 -8 -4 0 -14z"/>
<path d="M4334 5698 c3 -71 9 -99 34 -150 31 -67 130 -213 138 -205 6 6 -65
175 -109 262 -17 33 -39 87 -49 120 l-18 60 4 -87z"/>
<path d="M6068 5745 c-4 -21 -41 -111 -82 -200 -40 -88 -77 -171 -81 -185 l-6
-25 21 25 c104 125 163 262 158 366 -3 57 -3 58 -10 19z"/>
<path d="M2236 5453 c-7 -7 52 -73 66 -73 9 0 38 53 38 70 0 11 -92 14 -104 3z"/>
<path d="M8120 5543 c-93 -12 -98 -15 -81 -42 14 -21 108 -5 114 20 6 22 1 26
-33 22z"/>
<path d="M8132 5398 c-7 -7 -12 -21 -12 -31 0 -17 5 -19 38 -13 20 3 45 6 55
6 11 0 17 8 17 25 0 23 -4 25 -43 25 -24 0 -48 -5 -55 -12z"/>
<path d="M8020 5391 c-28 -5 -36 -11 -38 -32 -3 -26 -2 -27 45 -22 26 3 50 7
52 9 6 5 -9 54 -17 53 -4 -1 -23 -4 -42 -8z"/>
<path d="M8120 5293 c0 -27 2 -28 52 -27 49 1 53 3 56 28 3 25 2 26 -52 26
-54 0 -56 -1 -56 -27z"/>
<path d="M7990 5285 c0 -23 4 -25 45 -25 41 0 45 2 45 25 0 23 -4 25 -45 25
-41 0 -45 -2 -45 -25z"/>
<path d="M7008 4463 c29 -2 74 -2 100 0 26 2 2 3 -53 3 -55 0 -76 -1 -47 -3z"/>
<path d="M7773 4463 c26 -2 67 -2 90 0 23 2 2 3 -48 3 -49 0 -68 -1 -42 -3z"/>
<path d="M6033 4254 c-176 -63 -258 -353 -158 -562 53 -110 126 -162 240 -170
130 -8 225 40 281 142 29 53 40 96 24 94 -3 0 -27 0 -55 1 l-50 1 0 150 0 150
43 0 c23 0 42 -4 42 -8 0 -5 6 -9 14 -9 33 0 -21 104 -84 160 -68 62 -201 84
-297 51z"/>
<path d="M8709 3771 c-4 -11 -25 -13 -87 -12 -62 2 -82 -1 -82 -11 0 -9 -2
-10 -8 -1 -4 6 -30 12 -57 14 l-50 3 1 -36 c2 -72 86 -167 173 -196 48 -17
161 -15 212 3 51 18 103 65 130 117 37 72 34 73 -100 70 l-120 -3 -3 33 c-2
18 -6 27 -9 19z"/>
<path d="M1200 3575 c0 -12 48 -85 56 -85 3 0 -3 12 -14 28 -10 15 -24 36 -30
47 -6 11 -12 15 -12 10z"/>
<path d="M1290 3445 c19 -19 36 -35 39 -35 3 0 -10 16 -29 35 -19 19 -36 35
-39 35 -3 0 10 -16 29 -35z"/>
<path d="M1340 3396 c0 -2 7 -7 16 -10 8 -3 12 -2 9 4 -6 10 -25 14 -25 6z"/>
<path d="M1387 3369 c7 -7 15 -10 18 -7 3 3 -2 9 -12 12 -14 6 -15 5 -6 -5z"/>
<path d="M1426 3350 c5 -5 44 -20 86 -34 63 -21 94 -26 175 -25 155 2 178 16
29 18 -71 0 -143 5 -160 10 -101 30 -138 39 -130 31z"/>
<path d="M4918 4463 c46 -2 118 -2 160 0 42 1 5 3 -83 3 -88 0 -123 -2 -77 -3z"/>
<path d="M2430 3320 c0 -11 5 -20 10 -20 6 0 10 9 10 20 0 11 -4 20 -10 20 -5
0 -10 -9 -10 -20z"/>
<path d="M2532 3313 c37 -2 100 -2 140 0 40 1 10 3 -67 3 -77 0 -110 -1 -73
-3z"/>
<path d="M3480 3325 c0 -16 27 -32 37 -22 5 6 -21 37 -31 37 -3 0 -6 -7 -6
-15z"/>
<path d="M3592 3313 c37 -2 100 -2 140 0 40 1 10 3 -67 3 -77 0 -110 -1 -73
-3z"/>
<path d="M3820 3309 c0 -5 5 -7 10 -4 6 3 10 8 10 11 0 2 -4 4 -10 4 -5 0 -10
-5 -10 -11z"/>
<path d="M4320 3310 c0 -5 5 -10 10 -10 6 0 10 5 10 10 0 6 -4 10 -10 10 -5 0
-10 -4 -10 -10z"/>
<path d="M2980 3032 c-71 -31 -90 -73 -90 -192 0 -111 16 -153 71 -182 33 -17
117 -18 2256 -16 l2223 3 37 38 38 37 0 118 c0 101 -3 121 -20 144 -46 62 131
58 -2292 57 -1214 0 -2215 -3 -2223 -7z m2240 -107 c0 -16 6 -25 15 -25 8 0
15 -7 15 -15 0 -8 -7 -15 -15 -15 -11 0 -15 -11 -15 -40 0 -29 4 -40 15 -40 8
0 15 -7 15 -15 0 -21 -56 -20 -64 1 -3 9 -6 33 -6 55 0 21 -4 39 -10 39 -5 0
-10 7 -10 15 0 8 5 15 10 15 6 0 10 11 10 25 0 18 5 25 20 25 15 0 20 -7 20
-25z m-2066 -60 c12 -43 19 -40 31 13 5 22 12 32 26 32 14 0 22 -12 31 -47
l11 -47 14 47 c10 34 19 47 32 47 18 0 18 -3 -3 -72 -18 -58 -27 -74 -44 -76
-17 -3 -22 3 -28 32 -8 46 -20 46 -28 0 -6 -29 -11 -35 -28 -32 -17 2 -26 18
-44 76 l-22 73 21 -3 c14 -2 24 -15 31 -43z m340 5 c7 -48 21 -45 30 5 5 26
12 35 26 35 15 0 23 -11 32 -47 l12 -48 11 45 c8 34 16 46 32 48 l21 3 -22
-73 c-18 -58 -27 -74 -44 -76 -17 -3 -22 3 -28 32 -8 46 -20 46 -28 0 -6 -29
-11 -35 -28 -32 -17 2 -26 18 -44 76 l-22 72 23 0 c19 0 24 -7 29 -40z m340
-5 c12 -43 19 -40 31 13 5 22 12 32 26 32 14 0 22 -12 31 -47 l11 -47 14 47
c10 34 19 47 32 47 18 0 18 -3 -3 -72 -18 -58 -27 -74 -44 -76 -17 -3 -22 3
-28 32 -8 46 -20 46 -28 0 -6 -29 -11 -35 -28 -32 -17 2 -26 18 -44 76 l-22
73 21 -3 c14 -2 24 -15 31 -43z m631 23 c14 -21 14 -23 -1 -26 -9 -2 -21 1
-27 7 -33 33 -81 -15 -58 -58 15 -26 37 -27 53 -1 13 20 48 28 48 11 0 -4 -9
-20 -21 -35 -24 -31 -72 -35 -101 -9 -27 24 -25 97 4 117 34 24 84 20 103 -6z
m274 -4 c12 -15 21 -35 21 -45 0 -16 -8 -19 -56 -19 -49 0 -55 -2 -44 -15 15
-18 41 -20 57 -4 6 6 19 9 29 7 17 -3 17 -5 -4 -26 -26 -26 -68 -29 -100 -6
-29 20 -31 85 -2 114 29 29 74 26 99 -6z m280 0 c12 -15 21 -35 21 -45 0 -16
-8 -19 -50 -19 -28 0 -50 -5 -50 -10 0 -18 30 -23 55 -10 36 19 53 8 27 -18
-26 -26 -78 -29 -104 -5 -25 23 -24 87 2 113 29 29 74 26 99 -6z m500 0 c12
-15 21 -37 21 -49 0 -38 -37 -75 -76 -75 -45 0 -74 29 -74 75 0 72 86 104 129
49z m288 -4 c7 -14 13 -46 13 -72 0 -41 -3 -48 -20 -48 -18 0 -20 7 -20 55 0
40 -4 57 -15 61 -27 11 -45 -16 -45 -67 0 -42 -3 -49 -20 -49 -18 0 -20 7 -20
68 0 38 3 71 6 75 3 3 29 5 57 4 44 -2 53 -6 64 -27z m293 -56 c0 -97 -16
-124 -72 -124 -30 0 -68 23 -68 42 0 12 27 10 49 -4 21 -13 51 -5 51 15 0 9
-9 12 -30 9 -42 -6 -70 21 -70 67 0 20 7 47 16 59 13 18 24 22 70 21 l54 -2 0
-83z m475 64 c14 -21 14 -23 -1 -26 -9 -2 -21 1 -27 7 -33 33 -81 -15 -58 -58
15 -26 37 -27 53 -1 13 20 48 28 48 11 0 -22 -43 -61 -69 -61 -47 0 -71 25
-71 75 0 34 5 47 22 59 34 24 84 20 103 -6z m284 -4 c12 -15 21 -37 21 -49 0
-38 -37 -75 -76 -75 -45 0 -74 29 -74 75 0 72 86 104 129 49z m357 9 c9 -9 14
-36 14 -74 0 -52 -2 -59 -20 -59 -16 0 -19 8 -22 58 -3 49 -6 57 -23 57 -17 0
-20 -8 -23 -57 -3 -50 -6 -58 -22 -58 -18 0 -20 7 -20 60 0 43 -4 60 -13 60
-25 0 -37 -24 -37 -72 0 -41 -3 -48 -20 -48 -18 0 -20 7 -20 68 0 38 2 71 5
74 3 3 46 5 96 5 65 0 94 -4 105 -14z m-3026 -108 c0 -18 -5 -25 -20 -25 -15
0 -20 7 -20 25 0 18 5 25 20 25 15 0 20 -7 20 -25z m2110 0 c0 -18 -5 -25 -20
-25 -15 0 -20 7 -20 25 0 18 5 25 20 25 15 0 20 -7 20 -25z"/>
<path d="M4667 2873 c-15 -14 -6 -23 23 -23 32 0 40 14 14 24 -20 8 -29 8 -37
-1z"/>
<path d="M4947 2873 c-15 -14 -6 -23 23 -23 32 0 40 14 14 24 -20 8 -29 8 -37
-1z"/>
<path d="M5444 2872 c-21 -13 -25 -49 -9 -66 29 -29 65 -12 65 29 0 35 -30 55
-56 37z"/>
<path d="M6000 2859 c-9 -16 -9 -28 -1 -45 20 -45 64 -24 59 27 -4 42 -40 53
-58 18z"/>
<path d="M6776 2864 c-9 -8 -16 -22 -16 -29 0 -17 27 -45 44 -45 19 0 36 22
36 45 0 41 -36 58 -64 29z"/>
</g>
</svg>
